PathFileType	4	(X/Y/Z)	C:/Users/opensim2020/Desktop/walking_exp_matlab/subject06_walking12_straigt_03.trc																																																																																																																																														
DataRate	CameraRate	NumFrames	NumMarkers	Units	OrigDataRate	OrigDataStartFrame	OrigNumFrames																																																																																																																																										
100	100	7	48	mm	100	2095	184																																																																																																																																										
Frame#	Time	LFHD			RFHD			LBHD			RBHD			C7			T10			CLAV			STRN			RBAK			LSHO			LUPA			LELB			LFRM			LWRA			LWRB			LFIN			RSHO			RUPA			RELB			RFRM			RWRA			RWRB			RFIN			LASI			RASI			LPSI			RPSI			LTHI			LKNE			LTIB			LANK			LHEE			LTOE			RTHI			RKNE			RTIB			RANK			RHEE			RTOE			*39			*40			*41			*42			*43			*44			*45			*46			*47		
		X1	Y1	Z1	X2	Y2	Z2	X3	Y3	Z3	X4	Y4	Z4	X5	Y5	Z5	X6	Y6	Z6	X7	Y7	Z7	X8	Y8	Z8	X9	Y9	Z9	X10	Y10	Z10	X11	Y11	Z11	X12	Y12	Z12	X13	Y13	Z13	X14	Y14	Z14	X15	Y15	Z15	X16	Y16	Z16	X17	Y17	Z17	X18	Y18	Z18	X19	Y19	Z19	X20	Y20	Z20	X21	Y21	Z21	X22	Y22	Z22	X23	Y23	Z23	X24	Y24	Z24	X25	Y25	Z25	X26	Y26	Z26	X27	Y27	Z27	X28	Y28	Z28	X29	Y29	Z29	X30	Y30	Z30	X31	Y31	Z31	X32	Y32	Z32	X33	Y33	Z33	X34	Y34	Z34	X35	Y35	Z35	X36	Y36	Z36	X37	Y37	Z37	X38	Y38	Z38	X39	Y39	Z39	X40	Y40	Z40	X41	Y41	Z41	X42	Y42	Z42	X43	Y43	Z43	X44	Y44	Z44	X45	Y45	Z45	X46	Y46	Z46	X47	Y47	Z47	X48	Y48	Z48
																																																																																																																																																	
24	0.23	-536.60693	1637.43896	-1054.76709	-549.12317	1619.93335	-924.60583	-671.95251	1592.5177	-1070.02966	-682.77582	1580.30896	-941.48175	-687.64124	1429.25	-1018.32489	-730.81342	1100.19604	-1016.16266	-580.19781	1346.97119	-1014.08112	-545.79956	1171.25134	-1026.58643	-767.79059	1258.33887	-947.47168	-626.10541	1387.24622	-1176.02844	-582.25867	1194.70813	-1256.35181	-545.41632	1088.93542	-1274.93982	-429.04587	996.74921	-1290.62488	-308.69464	966.40277	-1238.58789	-341.32693	915.95178	-1276.50586	-252.21069	899.29047	-1273.71912	-631.37476	1378.15015	-853.57043	-709.3382	1190.1333	-774.73315	-724.82373	1067.84985	-765.80176	-740.75116	947.99304	-749.62579	-718.22583	797.44196	-777.75427	-773.25409	813.47339	-741.64594	-758.32758	730.01367	-738.84473	-554.83752	932.25458	-1121.40906	-557.07959	944.29614	-899.5072	-711.98077	968.39624	-1092.37	-707.83197	969.76086	-923.85309	-683.71613	631.70697	-1174.49512	-731.67883	473.12534	-1156.078	-859.92548	246.44624	-1148.35669	-927.24066	86.56749	-1104.26794	-969.44116	82.54011	-1057.5144	-794.54669	32.44403	-1110.47229	-551.9458	620.55817	-826.82062	-504.23096	504.95407	-853.29474	-462.85803	247.52147	-850.31006	-399.43729	69.24588	-886.50159	-421.39508	35.67564	-936.49408	-241.1035	76.9256	-872.73413	-639.02179	1679.64819	-1002.86078	NaN	NaN	NaN	NaN	NaN	NaN	NaN	NaN	NaN	NaN	NaN	NaN	NaN	NaN	NaN	NaN	NaN	NaN	NaN	NaN	NaN	NaN	NaN	NaN
25	0.24	-527.25824	1637.26855	-1053.52515	-539.47803	1619.63782	-923.39612	-662.51758	1591.94958	-1068.57544	-673.0415	1579.71655	-940.11847	-677.77899	1428.69592	-1016.90479	-720.1571	1099.70203	-1014.9165	-570.00806	1346.6134	-1012.87836	-535.35425	1170.86829	-1025.45654	-757.31177	1257.6366	-946.2002	-616.48956	1386.82568	-1174.75366	-573.47687	1194.02954	-1254.83862	-537.38348	1088.09119	-1273.0459	-421.00964	995.65588	-1288.60217	-300.79013	965.47858	-1236.48608	-333.34464	914.94244	-1274.1698	-244.35576	898.09717	-1271.17993	-621.11536	1377.65686	-852.25031	-698.91931	1189.49048	-773.64716	-713.90405	1067.14844	-764.69629	-729.46661	947.21942	-748.66638	-706.34131	796.77899	-776.87616	-761.55621	812.43115	-740.95111	-746.46613	729.28455	-738.27051	-544.40576	931.63	-1120.33728	-546.17896	943.91522	-898.26587	-701.25513	967.80518	-1091.19824	-697.03162	969.83356	-922.69562	-673.90131	631.07159	-1173.64575	-722.23682	472.60806	-1155.51941	-854.89368	248.34064	-1148.65125	-925.60559	89.77452	-1105.29236	-968.03729	86.64149	-1058.69861	-793.65747	32.72966	-1110.7002	-540.3374	621.32318	-826.17438	-492.42401	506.10074	-852.91235	-455.31973	246.33209	-850.16425	-397.43481	66.53558	-887.35333	-420.58508	33.57014	-937.02759	-239.43922	71.11176	-874.48621	-629.69232	1679.12817	-1001.39905	NaN	NaN	NaN	NaN	NaN	NaN	NaN	NaN	NaN	NaN	NaN	NaN	NaN	NaN	NaN	NaN	NaN	NaN	NaN	NaN	NaN	NaN	NaN	NaN
26	0.25	-517.8775	1637.28992	-1052.27832	-529.8551	1619.56628	-922.01257	-653.04327	1591.48499	-1067.06055	-663.30023	1579.19604	-938.54968	-667.83368	1428.30139	-1015.39624	-709.23895	1099.29016	-1013.40228	-559.77362	1346.40247	-1011.55835	-524.65826	1170.74561	-1024.23193	-746.7569	1257.05969	-944.77765	-606.64832	1386.69092	-1173.27075	-564.63458	1193.45776	-1253.22559	-529.29169	1087.20911	-1271.20911	-413.4313	994.3075	-1286.63013	-293.18039	964.04004	-1234.37048	-325.92242	913.44513	-1272.00537	-236.89871	896.23218	-1268.72791	-610.72534	1377.32471	-850.86652	-688.03925	1188.95361	-772.33466	-702.71039	1066.51477	-763.48889	-717.7998	946.52502	-747.58313	-694.01361	796.24042	-775.96252	-749.33435	811.62585	-740.05225	-733.6842	728.47101	-737.42767	-533.92548	931.22919	-1119.40942	-534.48505	944.18427	-897.1485	-690.48944	967.51123	-1089.87756	-685.6283	969.922	-921.4632	-663.80414	630.52228	-1172.63977	-712.27441	472.15366	-1154.89014	-849.20013	250.45331	-1148.8269	-923.61963	93.34114	-1106.20239	-966.24365	91.18547	-1059.78284	-792.91852	33.00403	-1110.80432	-528.40521	622.28735	-825.77454	-480.60513	507.22281	-853.09698	-448.55719	245.16832	-850.46472	-395.82855	64.63897	-888.65906	-419.16327	33.63956	-938.4295	-237.55231	63.42047	-876.31354	-620.35889	1678.75391	-999.93329	NaN	NaN	NaN	NaN	NaN	NaN	NaN	NaN	NaN	NaN	NaN	NaN	NaN	NaN	NaN	NaN	NaN	NaN	NaN	NaN	NaN	NaN	NaN	NaN
27	0.26	-508.53088	1637.63171	-1051.09888	-520.08893	1619.97998	-920.6474	-643.52515	1591.33105	-1065.41028	-653.54993	1578.98462	-936.7951	-658.03033	1428.22864	-1013.66528	-698.04578	1099.04443	-1011.92834	-549.43561	1346.66321	-1010.11438	-513.91034	1170.97949	-1022.93268	-736.31152	1256.5603	-943.1297	-597.01636	1386.51245	-1171.85352	-555.87244	1193.01746	-1251.56592	-521.55133	1086.34314	-1269.40515	-406.11404	992.78217	-1284.60791	-286.02795	962.1239	-1232.38403	-318.99243	911.62128	-1269.80579	-230.04167	893.77759	-1266.38599	-600.26886	1377.25708	-849.25171	-676.89032	1188.45654	-770.8429	-691.24036	1065.96655	-762.11908	-705.83295	945.90222	-746.40326	-681.35919	795.82654	-775.00323	-736.75946	810.92163	-739.08978	-720.45813	727.69696	-736.62177	-523.14008	931.11871	-1118.5448	-522.94427	944.38354	-896.01569	-679.80658	967.27765	-1088.5238	-674.52966	970.37769	-919.60925	-653.29657	630.06329	-1171.5625	-701.81335	471.71515	-1153.79688	-843.13141	252.8382	-1148.73279	-921.091	97.37234	-1107.23352	-963.92322	96.28048	-1061.09143	-793.38953	32.7709	-1111.14868	-516.18127	623.36255	-826.40253	-469.53259	508.41754	-854.40985	-441.61807	244.96919	-850.9975	-391.3046	65.48289	-887.78619	-415.73398	36.13993	-937.64996	-232.24774	56.5697	-876.77014	-611.07404	1678.70581	-998.40204	NaN	NaN	NaN	NaN	NaN	NaN	NaN	NaN	NaN	NaN	NaN	NaN	NaN	NaN	NaN	NaN	NaN	NaN	NaN	NaN	NaN	NaN	NaN	NaN
28	0.27	-499.26794	1638.72839	-1049.81567	-510.27454	1621.17444	-919.21338	-633.97357	1591.78882	-1063.70068	-643.4967	1579.39026	-935.01941	-647.97473	1428.83618	-1011.82098	-687.05493	1099.31958	-1011.02094	-539.25104	1347.56189	-1008.59631	-503.63315	1171.6864	-1021.72601	-725.84515	1256.35803	-941.35999	-587.13629	1387.00195	-1170.53552	-547.04919	1192.63916	-1249.77917	-513.8103	1085.55493	-1267.63464	-399.23529	991.08392	-1282.70032	-279.19241	959.72943	-1230.42334	-312.68341	909.38049	-1267.77783	-223.87852	890.70355	-1264.09778	-589.84711	1377.52368	-847.50189	-665.61011	1188.20935	-769.12451	-679.51477	1065.6228	-760.57758	-693.51019	945.41547	-745.15344	-668.34619	795.60278	-774.04321	-723.81024	810.4455	-737.98584	-707.44299	727.50232	-735.62207	-512.48254	931.32458	-1117.69775	-511.3107	945.16663	-895.04596	-668.95093	967.42059	-1087.23901	-663.20068	971.52106	-918.12408	-642.30731	629.81659	-1170.26367	-690.51318	471.47409	-1152.33875	-836.0827	255.5724	-1148.28235	-917.97406	102.09436	-1108.09949	-961.06042	102.35402	-1062.25647	-792.79938	32.94802	-1111.02734	-504.79202	624.74792	-826.60864	-459.37573	510.06406	-854.70697	-432.49454	246.55659	-848.01984	-384.89752	65.90368	-885.4848	-413.06946	38.28634	-934.37262	-227.24686	52.96764	-877.1189	-601.76392	1679.35254	-996.70398	NaN	NaN	NaN	NaN	NaN	NaN	NaN	NaN	NaN	NaN	NaN	NaN	NaN	NaN	NaN	NaN	NaN	NaN	NaN	NaN	NaN	NaN	NaN	NaN
29	0.28	-489.85092	1640.3269	-1048.26831	-500.42661	1622.74866	-917.74915	-624.39301	1592.84937	-1061.79651	-633.5188	1580.48364	-933.19556	-637.83289	1430.14734	-1010.08765	-676.1087	1100.11462	-1009.96637	-529.13013	1348.90906	-1007.09094	-492.95261	1173.01575	-1020.44507	-715.47302	1256.82178	-939.51917	-577.20782	1387.68652	-1169.03296	-538.37769	1192.64514	-1248.01428	-506.44318	1085.03113	-1265.8302	-392.67316	989.26941	-1280.69275	-272.92676	956.91583	-1228.60791	-307.24988	906.40521	-1265.75806	-218.41681	887.13062	-1262.04077	-579.33344	1378.14441	-845.68805	-653.7691	1188.25061	-767.26923	-667.35858	1065.56726	-759.00079	-680.80463	945.23303	-743.78296	-655.04651	795.65356	-773.03693	-710.51257	809.95673	-736.87439	-693.37708	727.15527	-734.44373	-501.73782	932.02686	-1116.72766	-499.61279	946.41132	-893.77271	-657.97144	967.91876	-1086.02905	-651.7027	973.16919	-917.14899	-630.85284	629.95996	-1168.88623	-678.13263	471.38889	-1150.90039	-828.21155	258.79947	-1147.68628	-914.3963	107.55174	-1108.4707	-957.43176	109.10426	-1062.72607	-791.80469	33.31932	-1110.87463	-493.961	626.54938	-825.99432	-450.3121	511.53897	-852.7569	-423.22629	248.24312	-844.91516	-380.53784	65.35868	-883.88361	-410.12228	39.38948	-932.3382	-223.31918	49.13784	-877.44092	-592.40521	1680.60071	-994.97797	NaN	NaN	NaN	NaN	NaN	NaN	NaN	NaN	NaN	NaN	NaN	NaN	NaN	NaN	NaN	NaN	NaN	NaN	NaN	NaN	NaN	NaN	NaN	NaN
30	0.29	-480.31656	1641.90601	-1046.83606	-490.577	1624.37292	-916.20459	-614.92151	1594.30359	-1059.99805	-623.59448	1581.96362	-931.22992	-627.54974	1431.59436	-1008.45093	-665.2077	1101.30859	-1008.83356	-519.02502	1350.53967	-1005.56885	-482.30923	1174.67261	-1019.14417	-704.82599	1257.89587	-937.67206	-567.13617	1388.76807	-1167.63196	-529.77551	1193.08374	-1246.04468	-499.09753	1084.88477	-1263.7699	-386.72592	987.55011	-1278.72339	-267.38571	953.58014	-1227.01428	-302.27798	903.69342	-1263.76196	-213.8047	883.06116	-1260.08508	-568.8642	1379.23364	-844.03064	-641.98407	1188.66577	-765.87939	-654.87079	1065.89429	-757.49084	-667.74811	945.45087	-742.37756	-641.34644	796.0307	-772.03699	-696.86206	810.07452	-735.52271	-678.8418	727.34247	-733.3266	-490.98367	933.25092	-1115.65759	-487.819	948.48633	-892.84961	-647.02777	968.65356	-1084.87622	-640.69977	974.99567	-916.10797	-618.93109	630.31964	-1167.33179	-664.51923	471.28085	-1149.32324	-819.66699	262.54785	-1146.74695	-910.28058	113.64452	-1108.41724	-952.85529	116.54525	-1062.7179	-790.92346	33.65329	-1110.66895	-483.6647	628.51672	-824.61969	-441.12967	513.04059	-850.5036	-415.45233	249.20508	-842.67053	-377.91904	65.51057	-882.41364	-408.94595	40.1443	-930.77039	-221.34938	44.51698	-877.75317	-582.73169	1682.09778	-993.25079	NaN	NaN	NaN	NaN	NaN	NaN	NaN	NaN	NaN	NaN	NaN	NaN	NaN	NaN	NaN	NaN	NaN	NaN	NaN	NaN	NaN	NaN	NaN	NaN
